<?xml version="1.0" encoding="utf-8"?>
<!-- Generator: Adobe Illustrator 19.2.0, SVG Export Plug-In . SVG Version: 6.00 Build 0)  -->
<svg version="1.1" id="Layer_1" xmlns="http://www.w3.org/2000/svg" xmlns:xlink="http://www.w3.org/1999/xlink" x="0px" y="0px"
	 viewBox="0 0 440 108" style="enable-background:new 0 0 440 108;" xml:space="preserve">
<metadata><?xpacket begin="﻿" id="W5M0MpCehiHzreSzNTczkc9d"?>
<x:xmpmeta xmlns:x="adobe:ns:meta/" x:xmptk="Adobe XMP Core 5.6-c111 79.158366, 2015/09/25-01:12:00        ">
   <rdf:RDF xmlns:rdf="http://www.w3.org/1999/02/22-rdf-syntax-ns#">
      <rdf:Description rdf:about=""/>
   </rdf:RDF>
</x:xmpmeta>
                                                                                                    
                                                                                                    
                                                                                                    
                                                                                                    
                                                                                                    
                                                                                                    
                                                                                                    
                                                                                                    
                                                                                                    
                                                                                                    
                                                                                                    
                                                                                                    
                                                                                                    
                                                                                                    
                                                                                                    
                                                                                                    
                                                                                                    
                                                                                                    
                                                                                                    
                                                                                                    
                           
<?xpacket end="w"?></metadata>
<style type="text/css">
	.st0{fill:none;stroke:#96CA4F;stroke-miterlimit:10;}
	.st1{fill:#163671;}
	.st2{fill:#C49A6C;}
	.st3{clip-path:url(#SVGID_2_);fill:#FFFFFF;stroke:#FFFFFF;stroke-width:0.8623;stroke-miterlimit:10;}
	.st4{fill:#FFFFFF;}
	.st5{fill:#5EB6CD;}
	.st6{fill-rule:evenodd;clip-rule:evenodd;fill:#96CA4F;}
</style>
<g id="Layer_1_1_">
	<g id="Divider">
		<line class="st0" x1="305.7" y1="83.4" x2="305.7" y2="22.1"/>
	</g>
	<g id="DTM">
		<g>
			<g>
				<path class="st1" d="M316.6,28.8h11.3c7.2,0,12.5,0.8,15.9,2.4c7.2,3.7,11,11.2,11,22.3c0,11.4-3.7,18.9-11,22.3
					c-3.6,1.6-8.8,2.4-15.9,2.4h-11.3V28.8z M328.5,76.3c6.7,0,11.5-0.8,14.7-2.5c6.1-3.3,9.1-10,9.1-20.2c0-8.3-2.1-14.5-6.5-18.5
					c-2-1.8-4.8-3.1-8.2-3.8c-1-0.2-2.3-0.3-3.8-0.4c-1.5-0.1-3.3-0.1-5.3-0.1h-9.6v45.4H328.5z"/>
			</g>
			<g>
				<path class="st1" d="M370.2,30.9h-15.5v-2.1h33.3v2.1h-15.5v47.4h-2.3L370.2,30.9L370.2,30.9z"/>
			</g>
			<g>
				<path class="st1" d="M392.9,28.8h3.4l18.1,34.9l17.3-34.9h3.3v49.6h-2.1V31.8L415,66.5h-1.4L395,31.8v46.7h-2L392.9,28.8
					L392.9,28.8z"/>
			</g>
		</g>
	</g>
</g>
<g>
	<g id="Text_1_">
		<g>
			<path class="st1" d="M150.9,83.4c-0.5-0.2-0.5-0.4-0.5-1.3c0-1.7,0.1-3.1,0.2-3.7c0-0.4,0.1-0.6,0.3-0.6c0.2,0,0.2,0.1,0.2,0.4
				c0,0.3,0,0.8,0.1,1.3c0.5,2.6,2.8,3.6,5.2,3.6c3.4,0,5-2.4,5-4.7c0-2.4-1-3.8-4-6.3l-1.6-1.3c-3.7-3-4.5-5.2-4.5-7.6
				c0-3.7,2.8-6.3,7.2-6.3c1.4,0,2.4,0.1,3.3,0.3c0.7,0.1,0.9,0.2,1.2,0.2c0.3,0,0.3,0.1,0.3,0.2s-0.1,1.3-0.1,3.7
				c0,0.6-0.1,0.8-0.2,0.8c-0.2,0-0.2-0.2-0.3-0.5c0-0.4-0.2-1.4-0.5-1.7c-0.2-0.4-1.2-1.9-4.4-1.9c-2.4,0-4.3,1.5-4.3,4.1
				c0,2,0.9,3.3,4.3,5.9l1,0.8c4.1,3.3,5.1,5.4,5.1,8.2c0,1.4-0.6,4.1-3,5.8c-1.5,1-3.4,1.5-5.3,1.5
				C153.9,84.4,152.3,84.1,150.9,83.4z"/>
			<path class="st1" d="M172.5,81.1c-3-2.6-3.7-6-3.7-8.8c0-2,0.7-5.5,3.5-8.1c1.9-1.8,4.7-3.2,9.4-3.2c1.2,0,3,0.1,4.5,0.3
				c1.2,0.2,2.1,0.4,3.1,0.5c0.3,0,0.4,0.1,0.4,0.3c0,0.2-0.1,0.6-0.1,1.7c0,1,0,2.6-0.1,3c0,0.5-0.2,0.6-0.3,0.6
				c-0.2,0-0.2-0.2-0.2-0.6c0-1.2-0.5-2.3-1.3-3c-1.1-0.9-3.3-1.6-6.1-1.6c-4,0-5.8,1-6.9,2.1c-2.3,2.1-2.8,4.8-2.8,7.8
				c0,5.7,4.5,10.8,11.1,10.8c2.3,0,3.8-0.2,5.1-1.4c0.7-0.7,1.1-1.9,1.2-2.5c0.1-0.3,0.1-0.4,0.3-0.4c0.1,0,0.3,0.2,0.3,0.4
				c0,0.2-0.4,2.8-0.7,3.8c-0.2,0.6-0.2,0.7-0.8,0.9c-1.3,0.5-3.6,0.7-5.6,0.7C178,84.3,174.9,83.2,172.5,81.1z"/>
			<path class="st1" d="M199.8,75.3c0,2.9,0,5.2,0.1,6.4c0.1,0.9,0.2,1.4,1.1,1.6c0.5,0.1,1.1,0.1,1.4,0.1c0.2,0,0.2,0.1,0.2,0.2
				c0,0.1-0.1,0.2-0.5,0.2c-1.7,0-3.7-0.1-3.8-0.1c-0.2,0-2.1,0.1-3,0.1c-0.3,0-0.5-0.1-0.5-0.2c0-0.1,0.1-0.2,0.2-0.2
				c0.3,0,0.7-0.1,0.9-0.1c0.6-0.1,0.7-0.7,0.8-1.6c0.1-1.2,0.2-3.6,0.2-6.4V70c0-4.6,0-5.5-0.1-6.4c-0.1-1-0.3-1.5-1-1.6
				c-0.3-0.1-0.7-0.1-0.9-0.1c-0.1,0-0.2-0.1-0.2-0.2c0-0.2,0.1-0.2,0.5-0.2c1,0,2.9,0.1,3.1,0.1c0.1,0,2.1-0.1,3.1-0.1
				c0.3,0,0.5,0.1,0.5,0.2c0,0.1-0.1,0.2-0.2,0.2c-0.2,0-0.4,0-0.8,0.1c-0.8,0.2-1,0.6-1.1,1.6c0,0.9,0,1.8,0,6.4V75.3z"/>
			<path class="st1" d="M209.9,70c0-4.6,0-5.5-0.1-6.4c-0.1-1-0.2-1.5-1.3-1.6c-0.2,0-0.8-0.1-1-0.1c-0.1,0-0.2-0.1-0.2-0.2
				c0-0.2,0.1-0.2,0.5-0.2c1.4,0,3.4,0.1,3.6,0.1c0.2,0,6.6,0,7.3,0c0.6,0,1.2-0.1,1.4-0.2c0.1,0,0.3-0.1,0.4-0.1
				c0.1,0,0.1,0.1,0.1,0.3c0,0.2-0.2,0.6-0.2,1.4c0,0.3-0.1,1.6-0.2,2c0,0.1-0.1,0.3-0.3,0.3c-0.2,0-0.2-0.1-0.2-0.4
				c0-0.2,0-0.7-0.2-1c-0.2-0.5-0.5-0.7-2.2-0.9c-0.5-0.1-4.1-0.1-4.4-0.1c-0.1,0-0.2,0.1-0.2,0.3v8.1c0,0.2,0,0.3,0.2,0.3
				c0.4,0,4.4,0,5.1-0.1c0.7-0.1,1.2-0.1,1.5-0.4c0.2-0.2,0.3-0.4,0.5-0.4c0.1,0,0.2,0.1,0.2,0.2c0,0.2-0.2,0.7-0.2,1.6
				c-0.1,0.6-0.1,1.7-0.1,1.9c0,0.2-0.1,0.6-0.3,0.6c-0.1,0-0.2-0.1-0.2-0.3c0-0.3,0-0.6-0.1-1c-0.1-0.4-0.4-0.8-1.6-0.9
				c-0.8-0.1-4.1-0.1-4.7-0.1c-0.2,0-0.2,0.1-0.2,0.2v2.5c0,1,0,4.5,0,5.1c0.1,2,0.6,2.4,3.7,2.4c0.8,0,2.3,0,3.1-0.3
				c0.8-0.4,1.2-0.9,1.4-2.1c0.1-0.3,0.1-0.5,0.3-0.5c0.2,0,0.2,0.2,0.2,0.5c0,0.2-0.2,2.2-0.4,2.9c-0.2,0.8-0.5,0.8-1.7,0.8
				c-2.3,0-4.1-0.1-5.4-0.1c-1.3-0.1-2.1-0.1-2.6-0.1c-0.1,0-0.7,0-1.3,0c-0.6,0-1.3,0.1-1.8,0.1c-0.3,0-0.5-0.1-0.5-0.2
				c0-0.1,0.1-0.2,0.2-0.2c0.3,0,0.7-0.1,0.9-0.1c0.6-0.1,0.7-0.7,0.8-1.6c0.2-1.2,0.2-3.6,0.2-6.4V70z"/>
			<path class="st1" d="M230.5,79.8c0.1,2.4,0.3,3.2,1.2,3.4c0.6,0.1,1.3,0.2,1.5,0.2c0.1,0,0.2,0.1,0.2,0.2c0,0.2-0.2,0.2-0.6,0.2
				c-1.7,0-3-0.1-3.3-0.1c-0.3,0-1.6,0.1-3,0.1c-0.3,0-0.5,0-0.5-0.2c0-0.1,0.1-0.2,0.2-0.2c0.2,0,0.8,0,1.3-0.2
				c0.8-0.2,0.9-1,0.9-3.7v-17c0-1.2,0.2-1.5,0.4-1.5c0.3,0,0.9,0.6,1.2,0.9c0.5,0.5,5,5.2,9.7,10.1c3,3.1,6.3,6.7,7.3,7.7
				l-0.3-14.9c0-1.9-0.2-2.6-1.2-2.8c-0.6-0.1-1.3-0.1-1.5-0.1c-0.2,0-0.2-0.2-0.2-0.3c0-0.2,0.2-0.2,0.6-0.2c1.4,0,2.9,0.1,3.2,0.1
				c0.3,0,1.4-0.1,2.6-0.1c0.3,0,0.6,0,0.6,0.2c0,0.1-0.1,0.3-0.3,0.3c-0.1,0-0.4,0-0.7,0.1c-1,0.2-1.1,0.8-1.1,2.6L248.7,82
				c0,2,0,2.1-0.2,2.1c-0.3,0-0.6-0.2-2.3-1.8c-0.3-0.3-4.8-4.7-8-8c-3.6-3.7-7-7.4-8-8.4L230.5,79.8z"/>
			<path class="st1" d="M258.1,81.1c-3-2.6-3.7-6-3.7-8.8c0-2,0.7-5.5,3.5-8.1c1.9-1.8,4.7-3.2,9.4-3.2c1.2,0,3,0.1,4.5,0.3
				c1.2,0.2,2.1,0.4,3.1,0.5c0.3,0,0.4,0.1,0.4,0.3c0,0.2-0.1,0.6-0.1,1.7c0,1,0,2.6-0.1,3c0,0.5-0.2,0.6-0.3,0.6
				c-0.2,0-0.2-0.2-0.2-0.6c0-1.2-0.5-2.3-1.3-3c-1.1-0.9-3.3-1.6-6.1-1.6c-4,0-5.8,1-6.9,2.1c-2.3,2.1-2.8,4.8-2.8,7.8
				c0,5.7,4.5,10.8,11.1,10.8c2.3,0,3.8-0.2,5.1-1.4c0.7-0.7,1.1-1.9,1.2-2.5c0.1-0.3,0.1-0.4,0.3-0.4c0.1,0,0.3,0.2,0.3,0.4
				c0,0.2-0.4,2.8-0.7,3.8c-0.2,0.6-0.2,0.7-0.8,0.9c-1.3,0.5-3.6,0.7-5.6,0.7C263.6,84.3,260.5,83.2,258.1,81.1z"/>
			<path class="st1" d="M282.6,70c0-4.6,0-5.5-0.1-6.4c-0.1-1-0.2-1.5-1.3-1.6c-0.2,0-0.8-0.1-1-0.1c-0.1,0-0.2-0.1-0.2-0.2
				c0-0.2,0.1-0.2,0.5-0.2c1.4,0,3.4,0.1,3.6,0.1c0.2,0,6.6,0,7.3,0c0.6,0,1.2-0.1,1.4-0.2c0.1,0,0.3-0.1,0.4-0.1
				c0.1,0,0.1,0.1,0.1,0.3c0,0.2-0.2,0.6-0.2,1.4c0,0.3-0.1,1.6-0.2,2c0,0.1-0.1,0.3-0.3,0.3c-0.2,0-0.2-0.1-0.2-0.4
				c0-0.2,0-0.7-0.2-1c-0.2-0.5-0.5-0.7-2.2-0.9c-0.5-0.1-4.1-0.1-4.4-0.1c-0.1,0-0.2,0.1-0.2,0.3v8.1c0,0.2,0,0.3,0.2,0.3
				c0.4,0,4.4,0,5.1-0.1c0.7-0.1,1.2-0.1,1.5-0.4c0.2-0.2,0.3-0.4,0.5-0.4c0.1,0,0.2,0.1,0.2,0.2c0,0.2-0.2,0.7-0.2,1.6
				c-0.1,0.6-0.1,1.7-0.1,1.9c0,0.2-0.1,0.6-0.3,0.6c-0.1,0-0.2-0.1-0.2-0.3c0-0.3,0-0.6-0.1-1c-0.1-0.4-0.4-0.8-1.6-0.9
				c-0.8-0.1-4.1-0.1-4.7-0.1c-0.2,0-0.2,0.1-0.2,0.2v2.5c0,1,0,4.5,0,5.1c0.1,2,0.6,2.4,3.7,2.4c0.8,0,2.3,0,3.1-0.3
				c0.8-0.4,1.2-0.9,1.4-2.1c0.1-0.3,0.1-0.5,0.3-0.5c0.2,0,0.2,0.2,0.2,0.5c0,0.2-0.2,2.2-0.4,2.9c-0.2,0.8-0.5,0.8-1.7,0.8
				c-2.3,0-4.1-0.1-5.4-0.1c-1.3-0.1-2.1-0.1-2.6-0.1c-0.1,0-0.7,0-1.3,0c-0.6,0-1.3,0.1-1.8,0.1c-0.3,0-0.5-0.1-0.5-0.2
				c0-0.1,0.1-0.2,0.2-0.2c0.3,0,0.7-0.1,0.9-0.1c0.6-0.1,0.7-0.7,0.8-1.6c0.2-1.2,0.2-3.6,0.2-6.4V70z"/>
		</g>
		<g>
			<path class="st1" d="M107.9,45.6c-3.4-3-4.2-7-4.2-10.4c0-2.3,0.8-6.4,3.9-9.5c2.1-2.1,5.3-3.7,10.7-3.7c1.4,0,3.4,0.1,5.1,0.4
				c1.3,0.2,2.4,0.5,3.6,0.5c0.4,0,0.5,0.2,0.5,0.4c0,0.3-0.1,0.7-0.2,2c-0.1,1.2-0.1,3.1-0.1,3.6c0,0.5-0.1,0.7-0.3,0.7
				c-0.2,0-0.3-0.2-0.3-0.7c0-1.4-0.6-2.8-1.5-3.6c-1.2-1-3.9-2-7-2c-4.7,0-6.8,1.4-8,2.6c-2.6,2.4-3.1,5.6-3.1,9.1
				c0,6.7,5.1,12.8,12.6,12.8c2.6,0,4.7-0.3,6.1-1.7c0.7-0.8,1.2-2.3,1.3-2.9c0.1-0.4,0.1-0.5,0.3-0.5c0.2,0,0.2,0.2,0.2,0.5
				c0,0.2-0.4,3.3-0.8,4.5c-0.2,0.7-0.3,0.7-0.9,1c-1.4,0.6-4.1,0.8-6.3,0.8C114.2,49.4,110.6,48.1,107.9,45.6z"/>
			<path class="st1" d="M139.7,27c0.4-1,0.5-1.2,0.7-1.2c0.3,0,0.4,0.4,0.7,1.1c0.6,1.3,5.5,13.5,7.4,18c1.1,2.7,2,3,2.6,3.3
				c0.5,0.1,0.9,0.2,1.2,0.2c0.2,0,0.4,0.1,0.4,0.2c0,0.2-0.3,0.2-0.7,0.2c-0.5,0-2.7,0-4.9-0.1c-0.6,0-1.1,0-1.1-0.2
				c0-0.1,0.1-0.1,0.2-0.2c0.2-0.1,0.5-0.3,0.3-0.8l-2.8-6.8c-0.1-0.1-0.1-0.2-0.3-0.2h-7.1c-0.1,0-0.2,0.1-0.3,0.2l-1.7,4.8
				c-0.3,0.7-0.5,1.5-0.5,2c0,0.6,0.5,0.8,1,0.8h0.3c0.2,0,0.3,0.1,0.3,0.2c0,0.2-0.2,0.2-0.5,0.2c-0.7,0-2.4-0.1-2.8-0.1
				c-0.3,0-1.9,0.1-3.1,0.1c-0.4,0-0.6-0.1-0.6-0.2c0-0.1,0.1-0.2,0.3-0.2c0.2,0,0.7,0,0.9-0.1c1.4-0.2,2-1.2,2.6-2.7L139.7,27z
				 M143.1,39.4c0.1,0,0.1-0.1,0.1-0.2l-3-8.1c-0.2-0.5-0.4-0.5-0.5,0l-2.9,8.1c0,0.1,0,0.2,0.1,0.2H143.1z"/>
			<path class="st1" d="M156.8,35c0-4.6,0-5.5-0.1-6.4c-0.1-1-0.2-1.5-1.3-1.6c-0.2,0-0.8-0.1-1-0.1c-0.1,0-0.2-0.1-0.2-0.2
				c0-0.2,0.1-0.2,0.5-0.2c1.4,0,3.5,0.1,3.6,0.1c0.3,0,2.9-0.1,3.8-0.1c2,0,4.1,0.2,5.7,1.3c0.8,0.6,2.1,2,2.1,4.1
				c0,2.2-0.9,4.3-3.8,6.8c2.5,3.1,4.7,5.8,6.4,7.7c1.6,1.7,2.7,2,3.4,2.1c0.6,0.1,0.9,0.1,1.1,0.1c0.2,0,0.3,0.1,0.3,0.2
				c0,0.2-0.2,0.2-0.7,0.2h-1.9c-1.7,0-2.5-0.2-3.3-0.6c-1.3-0.7-2.4-2.1-4.2-4.4c-1.3-1.6-2.7-3.5-3.3-4.3
				c-0.1-0.1-0.2-0.2-0.4-0.2l-3.9-0.1c-0.1,0-0.2,0.1-0.2,0.2v0.7c0,2.9,0,5.2,0.1,6.4c0.1,0.9,0.3,1.4,1.2,1.6
				c0.4,0.1,1.1,0.1,1.4,0.1c0.2,0,0.2,0.1,0.2,0.2c0,0.1-0.1,0.2-0.5,0.2c-1.7,0-3.6-0.1-3.8-0.1c0,0-2.1,0.1-3,0.1
				c-0.3,0-0.5-0.1-0.5-0.2c0-0.1,0.1-0.2,0.2-0.2c0.3,0,0.7-0.1,0.9-0.1c0.6-0.1,0.7-0.7,0.8-1.6c0.2-1.2,0.2-3.6,0.2-6.4V35z
				 M159.5,37.6c0,0.2,0.1,0.3,0.2,0.4c0.5,0.2,2,0.5,3.4,0.5c0.7,0,1.6,0,2.3-0.5c1-0.7,1.9-2.3,1.9-4.5c0-3.7-2-5.8-5.3-5.8
				c-0.9,0-1.9,0.1-2.2,0.2c-0.1,0.1-0.2,0.2-0.2,0.3V37.6z"/>
			<path class="st1" d="M181.6,44.9c0.1,2.4,0.3,3.2,1.2,3.4c0.6,0.1,1.3,0.2,1.5,0.2c0.1,0,0.2,0.1,0.2,0.2c0,0.2-0.2,0.2-0.6,0.2
				c-1.7,0-3-0.1-3.3-0.1c-0.3,0-1.6,0.1-3,0.1c-0.3,0-0.5,0-0.5-0.2c0-0.1,0.1-0.2,0.2-0.2c0.2,0,0.8,0,1.3-0.2
				c0.8-0.2,0.9-1,0.9-3.7v-17c0-1.2,0.2-1.5,0.4-1.5c0.3,0,0.9,0.6,1.2,0.9c0.5,0.5,5,5.2,9.7,10.1c3,3.1,6.3,6.7,7.3,7.7L198,29.8
				c0-1.9-0.2-2.6-1.2-2.8c-0.6-0.1-1.3-0.1-1.5-0.1c-0.2,0-0.2-0.2-0.2-0.3c0-0.2,0.2-0.2,0.6-0.2c1.4,0,2.9,0.1,3.2,0.1
				c0.3,0,1.4-0.1,2.6-0.1c0.3,0,0.6,0,0.6,0.2c0,0.1-0.1,0.3-0.4,0.3c-0.1,0-0.4,0-0.7,0.1c-1,0.2-1.1,0.8-1.1,2.6L199.8,47
				c0,2,0,2.1-0.2,2.1c-0.3,0-0.6-0.2-2.3-1.8c-0.3-0.3-4.8-4.7-8-8c-3.6-3.7-7-7.4-8-8.4L181.6,44.9z"/>
			<path class="st1" d="M208.8,35c0-4.6,0-5.5-0.1-6.4c-0.1-1-0.2-1.5-1.3-1.6c-0.2,0-0.8-0.1-1-0.1c-0.1,0-0.2-0.1-0.2-0.2
				c0-0.2,0.1-0.2,0.5-0.2c1.4,0,3.4,0.1,3.6,0.1c0.2,0,6.6,0,7.3,0c0.6,0,1.2-0.1,1.4-0.2c0.1,0,0.3-0.1,0.4-0.1
				c0.1,0,0.1,0.1,0.1,0.3c0,0.2-0.2,0.6-0.2,1.4c0,0.3-0.1,1.6-0.2,2c0,0.1-0.1,0.3-0.3,0.3c-0.2,0-0.2-0.1-0.2-0.4
				c0-0.2,0-0.7-0.2-1c-0.2-0.5-0.5-0.7-2.2-0.9c-0.5-0.1-4.1-0.1-4.4-0.1c-0.1,0-0.2,0.1-0.2,0.3v8.1c0,0.2,0,0.3,0.2,0.3
				c0.4,0,4.4,0,5.1-0.1c0.7-0.1,1.2-0.1,1.5-0.4c0.2-0.2,0.3-0.4,0.5-0.4c0.1,0,0.2,0.1,0.2,0.2c0,0.2-0.2,0.7-0.2,1.6
				c-0.1,0.6-0.1,1.7-0.1,1.9c0,0.2-0.1,0.6-0.3,0.6c-0.1,0-0.2-0.1-0.2-0.3c0-0.3,0-0.6-0.1-1c-0.1-0.4-0.4-0.8-1.6-0.9
				c-0.8-0.1-4.1-0.1-4.7-0.1c-0.2,0-0.2,0.1-0.2,0.2v2.5c0,1,0,4.5,0,5.1c0.1,2,0.6,2.4,3.7,2.4c0.8,0,2.3,0,3.1-0.3
				c0.8-0.3,1.2-0.9,1.4-2.1c0.1-0.3,0.1-0.5,0.3-0.5c0.2,0,0.2,0.2,0.2,0.5c0,0.2-0.2,2.2-0.4,2.9c-0.2,0.8-0.5,0.8-1.7,0.8
				c-2.3,0-4.1-0.1-5.4-0.1c-1.3-0.1-2.1-0.1-2.6-0.1c-0.1,0-0.7,0-1.3,0c-0.6,0-1.3,0.1-1.8,0.1c-0.3,0-0.5-0.1-0.5-0.2
				c0-0.1,0.1-0.2,0.2-0.2c0.3,0,0.7-0.1,0.9-0.1c0.6-0.1,0.7-0.7,0.8-1.6c0.2-1.2,0.2-3.6,0.2-6.4V35z"/>
			<path class="st1" d="M242.5,41.3c0-2.4-0.1-2.8-1.3-3c-0.2,0-0.8-0.1-1-0.1c-0.1,0-0.2-0.1-0.2-0.2c0-0.2,0.1-0.2,0.5-0.2
				c1.4,0,3.5,0.1,3.6,0.1c0.1,0,2.1-0.1,3-0.1c0.4,0,0.5,0,0.5,0.2c0,0.1-0.1,0.2-0.2,0.2c-0.2,0-0.4,0-0.8,0.1
				c-0.8,0.1-1.1,0.6-1.2,1.6c0,0.9,0,1.8,0,3.1v3.3c0,1.4,0,1.4-0.4,1.6c-2,1-4.8,1.3-6.5,1.3c-2.3,0-6.7-0.3-10.1-3.2
				c-1.9-1.6-3.7-4.8-3.7-8.5c0-4.8,2.4-8.1,5.1-9.8c2.8-1.7,5.8-1.9,8.2-1.9c2,0,4.1,0.3,4.7,0.5c0.6,0.1,1.7,0.3,2.5,0.3
				c0.3,0,0.4,0.1,0.4,0.3c0,0.4-0.2,1.2-0.2,4.2c0,0.5-0.1,0.6-0.3,0.6c-0.2,0-0.2-0.2-0.2-0.5c0-0.4-0.2-1.3-0.7-2
				c-0.8-1.1-3.1-2.3-7.1-2.3c-1.9,0-4.1,0.1-6.4,1.9c-1.8,1.4-3,4-3,7.5c0,4.2,2.2,7.2,3.3,8.2c2.4,2.3,5,3.1,7.9,3.1
				c1.1,0,2.5-0.1,3.3-0.6c0.4-0.2,0.6-0.3,0.6-0.9V41.3z"/>
			<path class="st1" d="M257.4,40.3c0,2.9,0,5.2,0.1,6.4c0.1,0.9,0.2,1.4,1.1,1.6c0.5,0.1,1.1,0.1,1.4,0.1c0.2,0,0.2,0.1,0.2,0.2
				c0,0.1-0.1,0.2-0.5,0.2c-1.7,0-3.7-0.1-3.8-0.1c-0.2,0-2.1,0.1-3,0.1c-0.3,0-0.5-0.1-0.5-0.2c0-0.1,0.1-0.2,0.2-0.2
				c0.3,0,0.7-0.1,0.9-0.1c0.6-0.1,0.7-0.7,0.8-1.6c0.1-1.2,0.2-3.6,0.2-6.4V35c0-4.6,0-5.5-0.1-6.4c-0.1-1-0.3-1.5-1-1.6
				c-0.3-0.1-0.7-0.1-0.9-0.1c-0.1,0-0.2-0.1-0.2-0.2c0-0.2,0.1-0.2,0.5-0.2c1,0,2.9,0.1,3.1,0.1c0.1,0,2.1-0.1,3.1-0.1
				c0.3,0,0.5,0.1,0.5,0.2c0,0.1-0.1,0.2-0.2,0.2c-0.2,0-0.4,0-0.8,0.1c-0.8,0.2-1,0.6-1.1,1.6c0,0.9,0,1.8,0,6.4V40.3z"/>
			<path class="st1" d="M267.5,35c0-4.6,0-5.5-0.1-6.4c-0.1-1-0.2-1.5-1.3-1.6c-0.2,0-0.8-0.1-1-0.1c-0.1,0-0.2-0.1-0.2-0.2
				c0-0.2,0.1-0.2,0.5-0.2c1.4,0,3.4,0.1,3.6,0.1c0.2,0,6.6,0,7.3,0c0.6,0,1.2-0.1,1.4-0.2c0.1,0,0.3-0.1,0.4-0.1
				c0.1,0,0.1,0.1,0.1,0.3c0,0.2-0.2,0.6-0.2,1.4c0,0.3-0.1,1.6-0.2,2c0,0.1-0.1,0.3-0.3,0.3c-0.2,0-0.2-0.1-0.2-0.4
				c0-0.2,0-0.7-0.2-1c-0.2-0.5-0.5-0.7-2.2-0.9c-0.5-0.1-4.1-0.1-4.4-0.1c-0.1,0-0.2,0.1-0.2,0.3v8.1c0,0.2,0,0.3,0.2,0.3
				c0.4,0,4.4,0,5.1-0.1c0.7-0.1,1.2-0.1,1.5-0.4c0.2-0.2,0.3-0.4,0.5-0.4c0.1,0,0.2,0.1,0.2,0.2c0,0.2-0.2,0.7-0.2,1.6
				c-0.1,0.6-0.1,1.7-0.1,1.9c0,0.2-0.1,0.6-0.3,0.6c-0.1,0-0.2-0.1-0.2-0.3c0-0.3,0-0.6-0.1-1c-0.1-0.4-0.4-0.8-1.6-0.9
				c-0.8-0.1-4.1-0.1-4.7-0.1c-0.2,0-0.2,0.1-0.2,0.2v2.5c0,1,0,4.5,0,5.1c0.1,2,0.6,2.4,3.7,2.4c0.8,0,2.3,0,3.1-0.3
				c0.8-0.3,1.2-0.9,1.4-2.1c0.1-0.3,0.1-0.5,0.3-0.5c0.2,0,0.2,0.2,0.2,0.5c0,0.2-0.2,2.2-0.4,2.9c-0.2,0.8-0.5,0.8-1.7,0.8
				c-2.3,0-4.1-0.1-5.4-0.1c-1.3-0.1-2.1-0.1-2.6-0.1c-0.1,0-0.7,0-1.3,0c-0.6,0-1.3,0.1-1.8,0.1c-0.3,0-0.5-0.1-0.5-0.2
				c0-0.1,0.1-0.2,0.2-0.2c0.3,0,0.7-0.1,0.9-0.1c0.6-0.1,0.7-0.7,0.8-1.6c0.2-1.2,0.2-3.6,0.2-6.4V35z"/>
		</g>
	</g>
	<g id="Seal_2_">
		<path id="Sky_2_" class="st1" d="M86.8,23.2C78.2,14,65.5,8.2,51.2,8.2C25.5,8.2,4.7,27.1,4.3,50.6h66.3
			C79,42.5,86.7,34.9,86.8,23.2z"/>
		<path id="Earth_2_" class="st2" d="M63.2,58.1c-0.3,0.3-0.6,0.7-0.9,1C42.1,61.9,21.3,48,4.8,57c3.1,21,22.7,37.1,46.5,37.1
			C48.9,77.4,55.3,66.9,63.2,58.1L63.2,58.1z"/>
		<g id="Shell_1_">
			<defs>
				<ellipse id="SVGID_1_" cx="51.2" cy="51.2" rx="46.9" ry="43"/>
			</defs>
			<clipPath id="SVGID_2_">
				<use xlink:href="#SVGID_1_"  style="overflow:visible;"/>
			</clipPath>
			<path class="st3" d="M41.3,87.2c1-0.6,2-1.2,2.9-1.9c0.9-0.7,1.7-1.5,2.5-2.3c3.2-3.2,5.6-7.2,6.8-11.5c1.3-4.3,1.5-8.8,0.6-13.2
				c-0.4-2.2-1.1-4.3-2.1-6.2c-0.9-2-2.1-3.8-3.5-5.5c2.4,3.6,4,7.7,4.5,11.9c0.5,4.2,0,8.5-1.4,12.4c-0.1,0.2-0.1,0.3-0.2,0.5
				c-0.1,0-0.3,0-0.4,0.1c-4.2,0.4-8.3-0.4-11.8-2.2c0.7-2.1,0.8-4.3,0.4-6.5c-0.2-1.2-0.7-2.5-1.3-3.6c-0.1-0.3-0.3-0.6-0.5-0.8
				c-0.1-0.1-0.2-0.3-0.3-0.4l-0.1-0.2l-0.1-0.2c-0.4-0.5-0.8-1-1.2-1.4c-1.7-1.8-3.8-3.2-6.1-4c-2.3-0.8-4.8-1.1-7.3-0.8
				c-2.5,0.3-4.8,1.2-6.9,2.6c-2,1.4-3.7,3.1-5,5.1c-1.3,2-2.3,4.3-2.8,6.6c-0.2,0.8-0.3,1.5-0.3,2.3c1.5,3.5,3.6,6.7,6,9.6
				c0,0,0,0,0,0c-1-1.7-1.6-3.5-1.9-5.4c-0.1-0.5-0.1-1.1-0.2-1.6c2.1-1.3,4.5-1.8,6.8-1.6c0,0.4,0.1,0.7,0.2,1.1
				c0.2,0.9,0.5,1.8,1,2.6c-1.8,2.2-3,4.8-3.3,7.8c0.5,0.5,1,1,1.6,1.5c-0.2-3.2,0.6-6.2,2.2-8.7c0.1,0.1,0.1,0.2,0.2,0.3
				c1.2,1.6,3,2.8,5,3.5c-0.6,3.1-0.4,6.3,0.7,9.4c-1.2-0.3-2.3-0.7-3.4-1.2c-0.7-0.3-1.4-0.7-2.1-1.1c3,2.4,6.3,4.4,9.9,6.1
				c1.5,0,3-0.2,4.5-0.5C37.1,89.1,39.3,88.3,41.3,87.2z M36.9,73.3c0.8-0.9,1.4-2,1.9-3.1c3.4,2.2,7.4,3.5,11.6,3.5
				c-1.4,2.8-3.3,5.3-5.6,7.4c-0.8,0.7-1.6,1.3-2.4,1.9c0,0,0,0,0,0c-3.7-1.5-6.7-3.9-8.9-6.9c0.2-0.1,0.4-0.2,0.6-0.3
				c0.1-0.1,0.3-0.2,0.4-0.3l0.2-0.1l0.2-0.1c0.2-0.2,0.5-0.4,0.7-0.6C36.1,74.3,36.5,73.8,36.9,73.3z M18.7,66.1
				c-0.2,0.7-0.3,1.4-0.3,2.1c-2.3-0.4-4.6-0.2-6.8,0.8c0-0.8,0.2-1.7,0.3-2.5c0.3-1.2,0.7-2.4,1.2-3.5c0.2-0.1,0.3-0.1,0.5-0.2
				c2.1-0.7,4.3-0.4,6.2,0.5C19.4,64.1,18.9,65,18.7,66.1z M22.7,71.5c-0.6-0.7-1-1.4-1.2-2.2c-0.2-0.8-0.2-1.7,0-2.5
				c0.2-0.8,0.6-1.6,1.1-2.3c0.3-0.3,0.6-0.6,0.9-0.9c0.3-0.3,0.7-0.5,1.1-0.6c0.8-0.3,1.6-0.4,2.5-0.3c0.8,0.2,1.6,0.5,2.2,1.1
				c0.1,0.1,0.2,0.2,0.2,0.2l0.1,0.1l0.1,0.1l0.1,0.2l0.1,0.1c0.1,0.1,0.1,0.2,0.2,0.3c0.2,0.4,0.3,0.8,0.4,1.2
				c0.1,0.8-0.1,1.7-0.6,2.4c-0.2,0.4-0.5,0.7-0.9,0.9c-0.3,0.2-0.7,0.4-1.1,0.5c-0.8,0.1-1.7-0.1-2.3-0.7c-0.1-0.1-0.2-0.1-0.2-0.2
				l-0.1-0.1l-0.1-0.1l0-0.1c-0.1-0.2-0.2-0.3-0.3-0.5c-0.1-0.4-0.1-0.8,0-1.2c0.1-0.4,0.3-0.8,0.6-1.1c0.1-0.1,0.1-0.1,0.2-0.2
				c0.1,0,0.2-0.1,0.2-0.1c0.2-0.1,0.4-0.1,0.6-0.2c0.4,0,0.8,0.1,1.2,0.3c0.2,0.1,0.3,0.3,0.5,0.4c0.1,0.2,0.2,0.4,0.2,0.6
				c0.1,0.4-0.1,0.9-0.3,1.2c0,0-0.1,0.1-0.1,0.1l-0.1,0l-0.1,0.1c-0.1,0.1-0.2,0.1-0.3,0.1c-0.2,0.1-0.4,0.1-0.6,0
				c-0.4-0.1-0.8-0.4-0.9-0.8c0-0.2,0-0.4,0.1-0.6c0.1-0.2,0.3-0.4,0.5-0.4c0.2-0.1,0.5,0,0.7,0.1c0.2,0.1,0.3,0.3,0.3,0.6
				c0,0.2-0.1,0.5-0.4,0.6c-0.2,0.1-0.5,0.1-0.7-0.2c0.1,0.2,0.5,0.3,0.7,0.2c0.3-0.1,0.5-0.4,0.5-0.7c0.1-0.6-0.6-1.1-1.2-1
				c-0.6,0.1-1.1,0.8-1,1.4c0.1,0.7,0.6,1.2,1.2,1.4c0.3,0.1,0.7,0.1,1,0c0.2,0,0.3-0.1,0.5-0.2l0.1-0.1l0.1-0.1
				c0.1,0,0.1-0.1,0.2-0.2c0.5-0.4,0.7-1.1,0.7-1.8c-0.1-1.4-1.4-2.4-2.8-2.3c-0.3,0-0.7,0.1-1,0.2c-0.2,0.1-0.3,0.1-0.5,0.2
				c-0.1,0.1-0.3,0.2-0.4,0.3c-0.5,0.4-0.9,1-1.1,1.6c-0.2,0.6-0.2,1.3-0.1,2c0.1,0.3,0.2,0.6,0.4,0.9l0.1,0.1l0.1,0.1
				c0.1,0.1,0.1,0.1,0.2,0.2c0.1,0.1,0.2,0.3,0.3,0.4c0.9,0.9,2.3,1.4,3.6,1.3c0.7-0.1,1.3-0.3,1.9-0.7c0.5-0.3,1-0.8,1.4-1.3
				c0.8-1.1,1.2-2.4,1.1-3.7c-0.1-0.7-0.2-1.3-0.5-1.9c-0.1-0.2-0.1-0.3-0.2-0.4l-0.1-0.2l-0.1-0.2l-0.2-0.2l-0.2-0.2
				c-0.1-0.1-0.2-0.2-0.3-0.4c-0.9-0.9-2.1-1.6-3.3-1.9c-1.3-0.3-2.6-0.2-3.9,0.2c-0.6,0.2-1.2,0.5-1.8,0.9c-0.5,0.4-1,0.8-1.4,1.3
				c0,0-0.1,0.1-0.1,0.2c-1.9-1.3-4-1.9-6.1-1.7c1-1.6,2.4-2.9,3.9-4c1.5-1,3.3-1.7,5.1-2c1.8-0.2,3.7,0,5.5,0.6
				c1.7,0.6,3.3,1.6,4.6,3c0.3,0.3,0.6,0.7,0.9,1l0.1,0.2l0.1,0.1c0.1,0.1,0.1,0.2,0.2,0.3c0.1,0.2,0.2,0.4,0.3,0.6
				c0.4,0.8,0.7,1.6,0.9,2.5c0.4,1.7,0.2,3.6-0.5,5.3c-0.3,0.8-0.8,1.6-1.4,2.3c-0.3,0.4-0.6,0.7-0.9,1c-0.2,0.2-0.3,0.3-0.5,0.4
				l-0.1,0.1l-0.1,0.1c-0.1,0.1-0.2,0.1-0.3,0.2c-1.4,1-3.2,1.4-5,1.1C25.5,73.8,23.8,72.9,22.7,71.5z M28.3,86.7
				c-1.6-3-2.3-6.3-2.1-9.5c0.2,0,0.3,0.1,0.5,0.1c2,0.4,4.1,0.1,5.9-0.7c1.8,3.2,4.4,5.9,7.8,7.8c-0.2,0.1-0.3,0.2-0.5,0.3
				c-1.8,0.9-3.7,1.6-5.7,1.9C32.3,86.9,30.3,87,28.3,86.7z"/>
		</g>
		<path id="Wave_2_" class="st4" d="M62.3,59.1c1.5-1.7,3-3.3,4.6-4.8c-21.8,6-45.1-12.1-62.2,2.1c0,0.2,0.1,0.4,0.1,0.7
			C21.3,48,42.1,61.9,62.3,59.1z"/>
		<polygon id="right_medium_star" class="st4" points="57.3,19.8 66.3,19.4 57.3,18.9 61.7,14 56.7,18.3 56.3,9.4 55.8,18.3 
			50.8,14.1 55.2,18.9 46.2,19.4 55.2,19.8 50.6,25.1 55.8,20.5 56.3,29.4 56.7,20.5 61.7,25 		"/>
		<polygon id="center_star" class="st4" points="41.8,33.3 61.1,32.4 41.8,31.4 51.2,20.7 40.5,30.1 39.5,10.8 38.6,30.1 27.8,21 
			37.2,31.4 18,32.4 37.3,33.3 27.4,44.8 38.6,34.7 39.5,53.9 40.5,34.7 51.2,44.4 		"/>
		<polygon id="top_corner_star" class="st4" points="27.8,14.3 36.8,15.7 28,13.5 33.3,9.3 27.5,12.7 28.8,3.7 26.6,12.6 22.4,7.3 
			25.8,13 16.8,11.7 25.7,13.9 20,18.3 26.2,14.7 24.8,23.7 27,14.8 31.1,20.4 		"/>
		<path id="Water_2_" class="st5" d="M66.9,54.3c2.6-2.6,5.3-5.1,7.8-7.7c-24,6.1-54-15.3-70.2,2.9c0,0-0.1,0.1-0.1,0.1
			c0,0,0,0-0.1,0.1c0,0.5,0,1,0,1.5c0,1.7,0.1,3.5,0.3,5.2C21.8,42.2,45.1,60.3,66.9,54.3z"/>
		<g id="Leaf_2_">
			<path class="st6" d="M51,94.1c0.1,0,0.1,0,0.2,0c21.3,0,39.3-13,45-30.9C83.3,82.6,65.5,78.5,51,94.1z"/>
			<path class="st6" d="M98.1,48.9c-0.3-5.6-1.8-10.8-4.2-15.6c0,28.9-36.1,32.9-42.7,60.7C60.1,76.9,96.4,72.5,98.1,48.9z"/>
			<path class="st6" d="M88.9,25.6c-0.7-0.8-1.4-1.7-2.2-2.5c-0.1,26.9-41,32.3-35.6,70.8C54.6,65.1,99.6,53.4,88.9,25.6z"/>
		</g>
	</g>
</g>
</svg>
